<svg width="1600" height="980" viewBox="0 0 1600 980" fill="none" xmlns="http://www.w3.org/2000/svg">
  <defs>
    <linearGradient id="bg" x1="246" y1="77" x2="1310" y2="866" gradientUnits="userSpaceOnUse">
      <stop stop-color="#DCC9B0"/>
      <stop offset="1" stop-color="#6E5847"/>
    </linearGradient>
    <linearGradient id="glass" x1="800" y1="0" x2="800" y2="980" gradientUnits="userSpaceOnUse">
      <stop stop-color="#F4E7D0" stop-opacity=".36"/>
      <stop offset="1" stop-color="#35281E" stop-opacity=".82"/>
    </linearGradient>
  </defs>
  <rect width="1600" height="980" fill="url(#bg)"/>
  <rect x="48" y="0" width="230" height="980" fill="#E8E0D4" fill-opacity=".72"/>
  <rect x="86" y="112" width="132" height="236" fill="#F7F6F2" fill-opacity=".94"/>
  <rect x="86" y="382" width="132" height="236" fill="#F7F6F2" fill-opacity=".94"/>
  <rect x="86" y="652" width="132" height="236" fill="#F7F6F2" fill-opacity=".94"/>
  <rect x="318" y="0" width="16" height="980" fill="#6B5649" fill-opacity=".58"/>
  <rect x="930" y="0" width="16" height="980" fill="#6B5649" fill-opacity=".48"/>
  <rect x="1168" y="0" width="14" height="980" fill="#6B5649" fill-opacity=".36"/>
  <rect x="646" y="120" width="112" height="168" rx="8" fill="#C99853"/>
  <rect x="664" y="144" width="76" height="18" rx="4" fill="#F0D8A3"/>
  <rect x="664" y="174" width="62" height="8" rx="4" fill="#E3C58D"/>
  <rect x="664" y="194" width="58" height="8" rx="4" fill="#E3C58D"/>
  <rect x="664" y="214" width="52" height="8" rx="4" fill="#E3C58D"/>
  <rect x="612" y="270" width="176" height="122" rx="10" fill="#F3F1EC" fill-opacity=".68"/>
  <rect x="646" y="296" width="104" height="16" rx="6" fill="#DAD1C2"/>
  <circle cx="700" cy="516" r="150" fill="#3A2A1F" fill-opacity=".46"/>
  <circle cx="900" cy="482" r="166" fill="#312319" fill-opacity=".44"/>
  <circle cx="1320" cy="504" r="178" fill="#32251D" fill-opacity=".45"/>
  <ellipse cx="700" cy="738" rx="168" ry="206" fill="#5E7580"/>
  <ellipse cx="900" cy="708" rx="166" ry="210" fill="#58656B"/>
  <ellipse cx="1320" cy="738" rx="176" ry="218" fill="#D7D3CE"/>
  <path d="M506 778C568 720 646 696 740 706V922H504L506 778Z" fill="#6D7982"/>
  <path d="M738 728C804 682 902 664 1036 690V922H740L738 728Z" fill="#6D5B4D"/>
  <path d="M1126 744C1198 700 1298 688 1438 730V922H1112L1126 744Z" fill="#CDC8C0"/>
  <rect x="480" y="734" width="670" height="170" rx="34" fill="#7B4931" fill-opacity=".58"/>
  <rect x="488" y="744" width="654" height="156" rx="28" fill="#8C5537" fill-opacity=".5"/>
  <rect y="0" width="1600" height="980" fill="url(#glass)"/>
</svg>
